<svg width="11" height="30" viewBox="0 0 11 30" fill="none" xmlns="http://www.w3.org/2000/svg">
<path fill-rule="evenodd" clip-rule="evenodd" d="M3.51257 2.04997C3.37466 2.2288 3.15051 2.5833 3.07462 2.74255C2.89843 3.11236 2.7617 3.56436 2.73938 3.85069C2.69235 4.45464 2.68296 5.61678 2.67996 11.1992C2.67698 16.7586 2.69309 19.8596 2.72888 20.6224C2.75291 21.134 2.88216 21.4981 3.18667 21.9123C4.01446 23.0382 5.43793 23.3948 6.68876 22.7895C7.07674 22.6018 7.51276 22.2106 7.75542 21.8324C7.91638 21.5816 8.07981 21.209 8.12448 20.991C8.20587 20.5939 8.2136 19.965 8.22135 13.0924L8.22691 8.17996L8.12353 8.07658C7.97757 7.93062 7.80594 7.84463 7.66508 7.84695C7.43109 7.85075 7.25025 7.97335 7.17226 8.18099C7.11919 8.32231 7.11284 8.90838 7.10341 14.5392C7.09301 20.746 7.0949 20.6819 6.91002 21.0594C6.81282 21.2579 6.5485 21.5569 6.35523 21.6869C6.063 21.8834 5.59607 21.9939 5.24876 21.9487C4.62974 21.868 4.18243 21.5242 3.90551 20.9162C3.84798 20.7899 3.83488 20.6789 3.8202 20.195C3.79663 19.4179 3.78533 7.75784 3.8066 6.14971C3.8253 4.73426 3.86082 3.97764 3.92356 3.65912C4.04612 3.03679 4.62802 2.34847 5.33534 1.98911C5.73166 1.78778 6.00856 1.72676 6.54508 1.72249C7.15015 1.71769 7.46602 1.80158 7.99044 2.10633C8.29758 2.28482 8.72503 2.70315 8.90199 2.99847C9.2152 3.52119 9.27684 3.76496 9.30151 4.57843C9.3288 5.47809 9.33512 20.4084 9.30898 22.2051C9.27115 24.8059 9.24373 25.0554 8.92867 25.6673C8.70119 26.1091 8.65828 26.1652 8.19573 26.6258C7.59492 27.2241 7.32893 27.3992 6.69642 27.6129C6.28096 27.7533 5.96359 27.8028 5.47659 27.8031C4.67388 27.8036 4.03222 27.6271 3.38652 27.228C3.05277 27.0218 2.57432 26.5743 2.33193 26.2419C2.00889 25.7987 1.74364 25.2245 1.64484 24.7544C1.58057 24.4485 1.56777 23.3482 1.55196 16.7629C1.53656 10.3462 1.51385 8.29453 1.45623 8.11351C1.36776 7.83557 0.823417 7.7671 0.585532 8.00399L0.5021 8.08709L0.480939 8.8922C0.449206 10.0988 0.436429 12.2091 0.430932 17.1456C0.425582 21.9739 0.444905 24.3489 0.492209 24.6784C0.559885 25.1497 0.828895 25.9418 1.07007 26.3797C1.41569 27.0074 2.1722 27.7932 2.83173 28.2096C3.07524 28.3634 3.52531 28.5694 3.86078 28.6808C4.48027 28.8864 5.2019 28.9706 5.85812 28.9139C7.68938 28.7555 9.2566 27.6516 10.0176 25.9841C10.3603 25.2334 10.4045 24.8578 10.4376 22.4159C10.4602 20.7491 10.4459 6.70902 10.4204 5.50441C10.3773 3.46762 10.3357 3.21679 9.92176 2.49591C9.80466 2.292 9.75362 2.23053 9.36923 1.83065C8.76269 1.19962 8.50993 1.03173 7.81153 0.796047C6.37266 0.310442 4.83243 0.682924 3.76933 1.77356C3.65453 1.89134 3.53898 2.01571 3.51257 2.04997Z" fill="black" stroke="black" stroke-width="0.5"/>
</svg>
