<svg width="22" height="24" viewBox="0 0 22 24" fill="none" xmlns="http://www.w3.org/2000/svg">
<path d="M10.5029 7.38503C7.94671 7.38503 5.88487 9.4455 5.88487 12C5.88487 14.5545 7.94671 16.615 10.5029 16.615C13.0591 16.615 15.1209 14.5545 15.1209 12C15.1209 9.4455 13.0591 7.38503 10.5029 7.38503ZM10.5029 15.0003C8.85102 15.0003 7.50058 13.6548 7.50058 12C7.50058 10.3452 8.847 8.99967 10.5029 8.99967C12.1588 8.99967 13.5052 10.3452 13.5052 12C13.5052 13.6548 12.1548 15.0003 10.5029 15.0003V15.0003ZM16.387 7.19625C16.387 7.79471 15.9047 8.27268 15.3098 8.27268C14.711 8.27268 14.2327 7.79069 14.2327 7.19625C14.2327 6.60181 14.715 6.11983 15.3098 6.11983C15.9047 6.11983 16.387 6.60181 16.387 7.19625ZM19.4456 8.28874C19.3772 6.84681 19.0477 5.56956 17.9906 4.51724C16.9376 3.46491 15.6595 3.13556 14.2166 3.06326C12.7295 2.97891 8.27226 2.97891 6.78517 3.06326C5.3463 3.13154 4.0682 3.46089 3.01116 4.51322C1.95412 5.56555 1.62857 6.8428 1.55622 8.28473C1.47182 9.77084 1.47182 14.2251 1.55622 15.7113C1.62455 17.1532 1.95412 18.4304 3.01116 19.4828C4.0682 20.5351 5.34228 20.8644 6.78517 20.9367C8.27226 21.0211 12.7295 21.0211 14.2166 20.9367C15.6595 20.8685 16.9376 20.5391 17.9906 19.4828C19.0436 18.4304 19.3732 17.1532 19.4456 15.7113C19.53 14.2251 19.53 9.77485 19.4456 8.28874V8.28874ZM17.5244 17.3058C17.2109 18.093 16.604 18.6995 15.8122 19.0168C14.6266 19.4868 11.8132 19.3783 10.5029 19.3783C9.19265 19.3783 6.37521 19.4828 5.19357 19.0168C4.40582 18.7036 3.79892 18.0971 3.48141 17.3058C3.01116 16.1209 3.11968 13.3094 3.11968 12C3.11968 10.6906 3.01518 7.87504 3.48141 6.69419C3.7949 5.90695 4.4018 5.30046 5.19357 4.98315C6.37923 4.51322 9.19265 4.62167 10.5029 4.62167C11.8132 4.62167 14.6306 4.51724 15.8122 4.98315C16.6 5.29644 17.2069 5.90293 17.5244 6.69419C17.9946 7.87906 17.8861 10.6906 17.8861 12C17.8861 13.3094 17.9946 16.125 17.5244 17.3058Z" fill="white"/>
</svg>
