<svg width="18" height="16" viewBox="0 0 18 16" fill="none" xmlns="http://www.w3.org/2000/svg">
<g clip-path="url(#clip0_135_2695)">
<path d="M0.628296 1.85858C0.628296 1.31985 0.816853 0.875409 1.19395 0.525252C1.57105 0.175078 2.0613 0 2.66466 0C3.25725 0 3.7367 0.17238 4.10304 0.517171C4.48014 0.872726 4.66869 1.33601 4.66869 1.90707C4.66869 2.42424 4.48553 2.8552 4.1192 3.19999C3.7421 3.55555 3.24647 3.73333 2.63233 3.73333H2.61617C2.02357 3.73333 1.54412 3.55555 1.17779 3.19999C0.811455 2.84444 0.628296 2.3973 0.628296 1.85858ZM0.838397 16V5.20403H4.42627V16H0.838397ZM6.41414 16H10.002V9.9717C10.002 9.59459 10.0451 9.30368 10.1313 9.09897C10.2821 8.73264 10.5111 8.42287 10.8182 8.16968C11.1252 7.91648 11.5104 7.78989 11.9737 7.78989C13.1805 7.78989 13.7838 8.60335 13.7838 10.2303V16H17.3717V9.81008C17.3717 8.21547 16.9946 7.00605 16.2404 6.18181C15.4862 5.35757 14.4896 4.94545 13.2505 4.94545C11.8606 4.94545 10.7778 5.54343 10.002 6.73938V6.77171H9.98586L10.002 6.73938V5.20403H6.41414C6.43569 5.54881 6.44647 6.62085 6.44647 8.42019C6.44647 10.2195 6.43569 12.7461 6.41414 16Z" fill="white"/>
</g>
<defs>
<clipPath id="clip0_135_2695">
<rect width="16.7434" height="16" fill="white" transform="translate(0.628296)"/>
</clipPath>
</defs>
</svg>
