<svg width="32" height="36" viewBox="0 0 32 36" fill="none" xmlns="http://www.w3.org/2000/svg">
<path d="M15.1074 34.8182C13.3382 35.1654 11.5173 35.1193 9.7668 34.683C8.01631 34.2467 6.37673 33.4303 4.95803 32.2885C3.53932 31.1467 2.37431 29.706 1.54112 28.0629C0.707938 26.4198 0.225846 24.6124 0.127184 22.7619C0.114009 22.526 0.107422 22.2887 0.107422 22.0474C0.109666 20.1345 0.521661 18.2457 1.31408 16.5154C2.1065 14.785 3.25987 13.2556 4.69208 12.0361C6.12429 10.8167 7.80015 9.93701 9.60035 9.45982C11.4006 8.98263 13.2809 8.91963 15.1074 9.2753C12.2184 9.84172 9.61187 11.4273 7.73697 13.7589C5.86207 16.0904 4.83623 19.0219 4.83623 22.0481C4.83623 25.0743 5.86207 28.0058 7.73697 30.3373C9.61187 32.6689 12.2184 34.2544 15.1074 34.8209V34.8182Z" fill="white"/>
<path d="M31.1621 16.2933C31.1618 19.619 29.8562 22.8084 27.5326 25.1599C25.2091 27.5115 22.0578 28.8325 18.7719 28.8325C18.6427 28.8325 18.5135 28.8325 18.3947 28.8325C18.2758 28.8325 18.144 28.8247 18.0187 28.8155C17.8934 28.8064 17.781 28.8011 17.6621 28.7881L17.5252 28.775C17.4812 28.775 17.4347 28.7671 17.396 28.7606L17.1918 28.7371C16.9864 28.7109 16.7861 28.6795 16.5885 28.6429C16.5148 28.6298 16.4399 28.6155 16.3662 28.5998C15.9967 28.5282 15.631 28.4375 15.2706 28.3278C15.1879 28.3042 15.1078 28.2781 15.0277 28.2519C14.8572 28.1996 14.6905 28.1421 14.5252 28.0793C14.4063 28.0375 14.2913 27.9917 14.1789 27.9485C14.0665 27.9054 13.9657 27.8609 13.8624 27.8178C13.759 27.7746 13.6414 27.7184 13.5316 27.6674C13.4218 27.6164 13.2848 27.5484 13.1621 27.4869C13.6263 27.5389 14.093 27.5651 14.56 27.5654C14.6828 27.5654 14.8055 27.5654 14.927 27.5654H14.9851C15.1143 27.5654 15.2358 27.5575 15.3598 27.5471H15.4037H15.4128C15.5523 27.5366 15.6905 27.5262 15.8301 27.5105C15.9696 27.4948 16.113 27.4804 16.2525 27.4595C16.3107 27.4595 16.3701 27.4451 16.4296 27.4346L16.6066 27.4045L16.7112 27.3875C16.8236 27.3705 16.9347 27.3483 17.0445 27.3235L17.0936 27.3143H17.1182C17.2332 27.2934 17.3443 27.2672 17.4567 27.2385L17.5174 27.2228C17.5781 27.2097 17.6376 27.1953 17.697 27.1783L17.874 27.1286L17.905 27.1208H17.9153C18.0445 27.0868 18.1647 27.0489 18.2874 27.0083C18.4102 26.9678 18.5174 26.9351 18.6311 26.8919L18.7409 26.854H18.7551C18.852 26.8226 18.9489 26.786 19.0445 26.7455L19.1182 26.7154L19.2693 26.6539C19.3197 26.6343 19.3714 26.6134 19.4218 26.5899C19.4426 26.5821 19.4629 26.5729 19.4825 26.5624C19.5394 26.5389 19.5949 26.5127 19.6492 26.4892C19.7035 26.4656 19.759 26.4408 19.8133 26.412C19.8675 26.3833 19.936 26.3545 19.9967 26.3231C20.0575 26.2917 20.1195 26.2656 20.1802 26.2316C20.3029 26.1714 20.4218 26.1008 20.5394 26.0393L20.812 25.8824C20.896 25.834 20.9825 25.783 21.0639 25.7268C21.1453 25.6706 21.237 25.6209 21.3223 25.5633L21.573 25.392C21.6841 25.3175 21.7939 25.239 21.9011 25.1554C22.0084 25.0717 22.1169 24.9945 22.2215 24.9082C22.3262 24.8219 22.4334 24.7369 22.5342 24.6467C22.604 24.5918 22.6737 24.529 22.7435 24.4649C22.7939 24.4218 22.8443 24.3747 22.8947 24.3341C22.9864 24.2505 23.0768 24.1655 23.1647 24.0726C23.2099 24.0321 23.2513 23.9889 23.2939 23.9418C23.3365 23.8948 23.3766 23.8595 23.4231 23.8111C23.4967 23.7365 23.5678 23.662 23.635 23.5848L23.6531 23.5678L23.7603 23.4515C23.7686 23.44 23.7777 23.4291 23.7874 23.4188C23.8378 23.3639 23.8869 23.3076 23.9334 23.2501C24.0071 23.1664 24.0781 23.0814 24.1479 22.9886C24.2177 22.8957 24.2668 22.8421 24.321 22.7676C24.3314 22.7545 24.3417 22.7388 24.352 22.727C24.3716 22.7055 24.3893 22.6823 24.405 22.6577C24.458 22.5897 24.5084 22.5269 24.5588 22.4511C24.5635 22.4458 24.5678 22.4401 24.5717 22.4341C24.6053 22.3896 24.6376 22.3426 24.6712 22.2955C24.7319 22.2079 24.8004 22.1176 24.8507 22.034C24.8669 22.0147 24.8807 21.9937 24.8921 21.9712C24.9644 21.8648 25.0342 21.7563 25.1014 21.6456C25.1014 21.6364 25.1117 21.6286 25.1156 21.6194C25.1217 21.6106 25.1273 21.6014 25.1324 21.592C25.2009 21.4782 25.2681 21.3631 25.3327 21.248C25.3973 21.133 25.4722 20.9944 25.5394 20.8662C25.6066 20.7381 25.6686 20.6047 25.7345 20.4739C26.5409 18.7694 26.954 16.9016 26.9425 15.0118C26.9442 12.697 26.3123 10.4269 25.1168 8.45359C23.9213 6.48022 22.209 4.8807 20.1699 3.83252C23.1946 4.17986 25.9871 5.6422 28.0146 7.94051C30.042 10.2388 31.1625 13.2122 31.1621 16.2933Z" fill="white"/>
<path d="M20.2175 18C20.2556 17.5502 20.2753 17.0923 20.2753 16.6289C20.2819 14.6175 19.9012 12.6249 19.1555 10.7684C18.9283 10.2056 18.6652 9.65921 18.3678 9.13288C17.1416 6.96176 15.3968 5.2772 13.3567 4.35451C12.2191 3.83223 10.989 3.56252 9.74512 3.56265C9.50487 3.56265 9.26594 3.57356 9.02963 3.594C4.93361 3.93064 1.47562 7.19073 0 11.7115C0.547449 5.13001 5.0255 0 10.4724 0C12.107 0.00457861 13.7102 0.46645 15.1133 1.33702C15.7917 1.75259 16.4224 2.24686 16.9932 2.81033C18.713 4.49625 19.9996 6.83638 20.6075 9.52677C20.8172 10.4534 20.9433 11.3984 20.9842 12.3494C20.9947 12.5879 21 12.8277 21 13.0703C21.0017 14.747 20.7374 16.4125 20.2175 18Z" fill="white"/>
</svg>
