<svg width="156" height="36" viewBox="0 0 156 36" fill="none" xmlns="http://www.w3.org/2000/svg">
<path d="M15.1074 35.294C13.3382 35.6412 11.5173 35.5951 9.7668 35.1589C8.01631 34.7226 6.37673 33.9061 4.95803 32.7644C3.53932 31.6226 2.37431 30.1818 1.54112 28.5387C0.707938 26.8956 0.225846 25.0882 0.127184 23.2377C0.114009 23.0018 0.107422 22.7645 0.107422 22.5232C0.109666 20.6104 0.521661 18.7216 1.31408 16.9912C2.1065 15.2608 3.25987 13.7315 4.69208 12.512C6.12429 11.2925 7.80015 10.4128 9.60035 9.93565C11.4006 9.45846 13.2809 9.39546 15.1074 9.75113C12.2184 10.3176 9.61187 11.9032 7.73697 14.2347C5.86207 16.5662 4.83623 19.4977 4.83623 22.5239C4.83623 25.5501 5.86207 28.4816 7.73697 30.8131C9.61187 33.1447 12.2184 34.7303 15.1074 35.2967V35.294Z" fill="url(#paint0_linear_534_1726)"/>
<path d="M31.1621 16.7691C31.1618 20.0949 29.8562 23.2843 27.5326 25.6358C25.2091 27.9873 22.0578 29.3083 18.7719 29.3083C18.6427 29.3083 18.5135 29.3083 18.3947 29.3083C18.2758 29.3083 18.144 29.3005 18.0187 29.2913C17.8934 29.2822 17.781 29.277 17.6621 29.2639L17.5252 29.2508C17.4812 29.2508 17.4347 29.243 17.396 29.2364L17.1918 29.2129C16.9864 29.1867 16.7861 29.1554 16.5885 29.1187C16.5148 29.1057 16.4399 29.0913 16.3662 29.0756C15.9967 29.0041 15.631 28.9133 15.2706 28.8036C15.1879 28.7801 15.1078 28.7539 15.0277 28.7277C14.8572 28.6754 14.6905 28.6179 14.5252 28.5551C14.4063 28.5133 14.2913 28.4675 14.1789 28.4244C14.0665 28.3812 13.9657 28.3368 13.8624 28.2936C13.759 28.2504 13.6414 28.1942 13.5316 28.1432C13.4218 28.0922 13.2848 28.0242 13.1621 27.9628C13.6263 28.0147 14.093 28.0409 14.56 28.0412C14.6828 28.0412 14.8055 28.0412 14.927 28.0412H14.9851C15.1143 28.0412 15.2358 28.0334 15.3598 28.0229H15.4037H15.4128C15.5523 28.0124 15.6905 28.002 15.8301 27.9863C15.9696 27.9706 16.113 27.9562 16.2525 27.9353C16.3107 27.9353 16.3701 27.9209 16.4296 27.9105L16.6066 27.8804L16.7112 27.8634C16.8236 27.8464 16.9347 27.8242 17.0445 27.7993L17.0936 27.7901H17.1182C17.2332 27.7692 17.3443 27.7431 17.4567 27.7143L17.5174 27.6986C17.5781 27.6855 17.6376 27.6712 17.697 27.6542L17.874 27.6045L17.905 27.5966H17.9153C18.0445 27.5626 18.1647 27.5247 18.2874 27.4842C18.4102 27.4436 18.5174 27.4109 18.6311 27.3678L18.7409 27.3298H18.7551C18.852 27.2985 18.9489 27.2618 19.0445 27.2213L19.1182 27.1912L19.2693 27.1298C19.3197 27.1102 19.3714 27.0892 19.4218 27.0657C19.4426 27.058 19.4629 27.0488 19.4825 27.0382C19.5394 27.0147 19.5949 26.9885 19.6492 26.965C19.7035 26.9415 19.759 26.9166 19.8133 26.8879C19.8675 26.8591 19.936 26.8303 19.9967 26.7989C20.0575 26.7675 20.1195 26.7414 20.1802 26.7074C20.3029 26.6472 20.4218 26.5766 20.5394 26.5152L20.812 26.3583C20.896 26.3099 20.9825 26.2589 21.0639 26.2026C21.1453 26.1464 21.237 26.0967 21.3223 26.0392L21.573 25.8679C21.6841 25.7933 21.7939 25.7149 21.9011 25.6312C22.0084 25.5475 22.1169 25.4703 22.2215 25.384C22.3262 25.2977 22.4334 25.2127 22.5342 25.1225C22.604 25.0676 22.6737 25.0048 22.7435 24.9407C22.7939 24.8976 22.8443 24.8505 22.8947 24.81C22.9864 24.7263 23.0768 24.6413 23.1647 24.5484C23.2099 24.5079 23.2513 24.4648 23.2939 24.4177C23.3365 24.3706 23.3766 24.3353 23.4231 24.2869C23.4967 24.2124 23.5678 24.1378 23.635 24.0607L23.6531 24.0437L23.7603 23.9273C23.7686 23.9158 23.7777 23.9049 23.7874 23.8946C23.8378 23.8397 23.8869 23.7835 23.9334 23.7259C24.0071 23.6422 24.0781 23.5572 24.1479 23.4644C24.2177 23.3715 24.2668 23.3179 24.321 23.2434C24.3314 23.2303 24.3417 23.2146 24.352 23.2028C24.3716 23.1813 24.3893 23.1581 24.405 23.1335C24.458 23.0655 24.5084 23.0028 24.5588 22.9269C24.5635 22.9216 24.5678 22.9159 24.5717 22.9099C24.6053 22.8655 24.6376 22.8184 24.6712 22.7713C24.7319 22.6837 24.8004 22.5935 24.8507 22.5098C24.8669 22.4905 24.8807 22.4695 24.8921 22.447C24.9644 22.3407 25.0342 22.2321 25.1014 22.1214C25.1014 22.1122 25.1117 22.1044 25.1156 22.0953C25.1217 22.0864 25.1273 22.0772 25.1324 22.0678C25.2009 21.954 25.2681 21.8389 25.3327 21.7239C25.3973 21.6088 25.4722 21.4702 25.5394 21.342C25.6066 21.2139 25.6686 21.0805 25.7345 20.9497C26.5409 19.2452 26.954 17.3774 26.9425 15.4876C26.9442 13.1728 26.3123 10.9028 25.1168 8.92942C23.9213 6.95605 22.209 5.35653 20.1699 4.30835C23.1946 4.65569 25.9871 6.11803 28.0146 8.41634C30.042 10.7146 31.1625 13.688 31.1621 16.7691Z" fill="url(#paint1_linear_534_1726)"/>
<path d="M20.2175 18.4758C20.2556 18.0261 20.2753 17.5681 20.2753 17.1047C20.2819 15.0933 19.9012 13.1007 19.1555 11.2442C18.9283 10.6814 18.6652 10.135 18.3678 9.60871C17.1416 7.43759 15.3968 5.75303 13.3567 4.83034C12.2191 4.30806 10.989 4.03835 9.74512 4.03848C9.50487 4.03848 9.26594 4.04939 9.02963 4.06983C4.93361 4.40647 1.47562 7.66656 0 12.1873C0.547449 5.60584 5.0255 0.47583 10.4724 0.47583C12.107 0.480409 13.7102 0.94228 15.1133 1.81285C15.7917 2.22842 16.4224 2.72269 16.9932 3.28616C18.713 4.97208 19.9996 7.31221 20.6075 10.0026C20.8172 10.9293 20.9433 11.8742 20.9842 12.8252C20.9947 13.0637 21 13.3036 21 13.5462C21.0017 15.2229 20.7374 16.8884 20.2175 18.4758Z" fill="url(#paint2_linear_534_1726)"/>
<path d="M47.834 21.2793C47.834 21.0254 47.7949 20.7975 47.7168 20.5957C47.6452 20.3874 47.5085 20.1986 47.3066 20.0293C47.1048 19.8535 46.8216 19.681 46.457 19.5117C46.0924 19.3424 45.6204 19.1667 45.041 18.9844C44.3965 18.776 43.7845 18.5417 43.2051 18.2812C42.6322 18.0208 42.1243 17.7181 41.6816 17.373C41.2454 17.0215 40.9004 16.6146 40.6465 16.1523C40.3991 15.6901 40.2754 15.153 40.2754 14.541C40.2754 13.9486 40.4056 13.4115 40.666 12.9297C40.9264 12.4414 41.291 12.0247 41.7598 11.6797C42.2285 11.3281 42.7819 11.0579 43.4199 10.8691C44.0645 10.6803 44.7708 10.5859 45.5391 10.5859C46.5872 10.5859 47.502 10.7747 48.2832 11.1523C49.0645 11.5299 49.6699 12.0475 50.0996 12.7051C50.5358 13.3626 50.7539 14.1146 50.7539 14.9609H47.8438C47.8438 14.5443 47.7559 14.1797 47.5801 13.8672C47.4108 13.5482 47.1504 13.2975 46.7988 13.1152C46.4538 12.9329 46.0176 12.8418 45.4902 12.8418C44.9824 12.8418 44.5592 12.9199 44.2207 13.0762C43.8822 13.2259 43.6283 13.431 43.459 13.6914C43.2897 13.9453 43.2051 14.2318 43.2051 14.5508C43.2051 14.7917 43.2637 15.0098 43.3809 15.2051C43.5046 15.4004 43.6868 15.5827 43.9277 15.752C44.1686 15.9212 44.4648 16.0807 44.8164 16.2305C45.168 16.3802 45.5749 16.5267 46.0371 16.6699C46.8118 16.9043 47.4922 17.168 48.0781 17.4609C48.6706 17.7539 49.1654 18.0827 49.5625 18.4473C49.9596 18.8118 50.2591 19.2253 50.4609 19.6875C50.6628 20.1497 50.7637 20.6738 50.7637 21.2598C50.7637 21.8783 50.6432 22.4316 50.4023 22.9199C50.1615 23.4082 49.8132 23.8216 49.3574 24.1602C48.9017 24.4987 48.3581 24.7559 47.7266 24.9316C47.0951 25.1074 46.3887 25.1953 45.6074 25.1953C44.9043 25.1953 44.2109 25.1042 43.5273 24.9219C42.8438 24.7331 42.222 24.4499 41.6621 24.0723C41.1087 23.6947 40.666 23.2129 40.334 22.627C40.002 22.041 39.8359 21.3477 39.8359 20.5469H42.7754C42.7754 20.9896 42.8438 21.3639 42.9805 21.6699C43.1172 21.9759 43.3092 22.2233 43.5566 22.4121C43.8105 22.6009 44.11 22.7376 44.4551 22.8223C44.8066 22.9069 45.1908 22.9492 45.6074 22.9492C46.1152 22.9492 46.5319 22.8776 46.8574 22.7344C47.1895 22.5911 47.4336 22.3926 47.5898 22.1387C47.7526 21.8848 47.834 21.5983 47.834 21.2793ZM52.1309 19.8242V19.6191C52.1309 18.8444 52.2415 18.1315 52.4629 17.4805C52.6842 16.8229 53.0065 16.2533 53.4297 15.7715C53.8529 15.2897 54.3737 14.9154 54.9922 14.6484C55.6107 14.375 56.3203 14.2383 57.1211 14.2383C57.9219 14.2383 58.6348 14.375 59.2598 14.6484C59.8848 14.9154 60.4089 15.2897 60.832 15.7715C61.2617 16.2533 61.5872 16.8229 61.8086 17.4805C62.0299 18.1315 62.1406 18.8444 62.1406 19.6191V19.8242C62.1406 20.5924 62.0299 21.3053 61.8086 21.9629C61.5872 22.6139 61.2617 23.1836 60.832 23.6719C60.4089 24.1536 59.888 24.528 59.2695 24.7949C58.651 25.0618 57.9414 25.1953 57.1406 25.1953C56.3398 25.1953 55.627 25.0618 55.002 24.7949C54.3835 24.528 53.8594 24.1536 53.4297 23.6719C53.0065 23.1836 52.6842 22.6139 52.4629 21.9629C52.2415 21.3053 52.1309 20.5924 52.1309 19.8242ZM54.9434 19.6191V19.8242C54.9434 20.2669 54.9824 20.6803 55.0605 21.0645C55.1387 21.4486 55.2624 21.7871 55.4316 22.0801C55.6074 22.3665 55.8353 22.5911 56.1152 22.7539C56.3952 22.9167 56.737 22.998 57.1406 22.998C57.5312 22.998 57.8665 22.9167 58.1465 22.7539C58.4264 22.5911 58.651 22.3665 58.8203 22.0801C58.9896 21.7871 59.1133 21.4486 59.1914 21.0645C59.276 20.6803 59.3184 20.2669 59.3184 19.8242V19.6191C59.3184 19.1895 59.276 18.7858 59.1914 18.4082C59.1133 18.0241 58.9863 17.6855 58.8105 17.3926C58.6413 17.0931 58.4167 16.8587 58.1367 16.6895C57.8568 16.5202 57.5182 16.4355 57.1211 16.4355C56.724 16.4355 56.3854 16.5202 56.1055 16.6895C55.832 16.8587 55.6074 17.0931 55.4316 17.3926C55.2624 17.6855 55.1387 18.0241 55.0605 18.4082C54.9824 18.7858 54.9434 19.1895 54.9434 19.6191ZM67.4531 25H64.6211V13.4961C64.6211 12.6953 64.7773 12.0215 65.0898 11.4746C65.4089 10.9212 65.8548 10.5046 66.4277 10.2246C67.0072 9.93815 67.694 9.79492 68.4883 9.79492C68.7487 9.79492 68.9993 9.81445 69.2402 9.85352C69.4811 9.88607 69.7155 9.92839 69.9434 9.98047L69.9141 12.0996C69.7904 12.0671 69.6602 12.0443 69.5234 12.0312C69.3867 12.0182 69.2272 12.0117 69.0449 12.0117C68.7064 12.0117 68.4167 12.0703 68.1758 12.1875C67.9414 12.2982 67.7624 12.4642 67.6387 12.6855C67.515 12.9069 67.4531 13.1771 67.4531 13.4961V25ZM69.5625 14.4336V16.4258H63.0488V14.4336H69.5625ZM76.2129 14.4336V16.4258H70.0605V14.4336H76.2129ZM71.584 11.8262H74.3965V21.8164C74.3965 22.1224 74.4355 22.3568 74.5137 22.5195C74.5983 22.6823 74.722 22.7962 74.8848 22.8613C75.0475 22.9199 75.2526 22.9492 75.5 22.9492C75.6758 22.9492 75.832 22.9427 75.9688 22.9297C76.112 22.9102 76.2324 22.8906 76.3301 22.8711L76.3398 24.9414C76.099 25.0195 75.8385 25.0814 75.5586 25.127C75.2786 25.1725 74.9694 25.1953 74.6309 25.1953C74.0124 25.1953 73.472 25.0944 73.0098 24.8926C72.554 24.6842 72.2025 24.3522 71.9551 23.8965C71.7077 23.4408 71.584 22.8418 71.584 22.0996V11.8262ZM83.5273 19.9316H79.9043V17.6465H83.5273C84.0872 17.6465 84.543 17.5553 84.8945 17.373C85.2461 17.1842 85.5033 16.9238 85.666 16.5918C85.8288 16.2598 85.9102 15.8854 85.9102 15.4688C85.9102 15.0456 85.8288 14.6517 85.666 14.2871C85.5033 13.9225 85.2461 13.6296 84.8945 13.4082C84.543 13.1868 84.0872 13.0762 83.5273 13.0762H80.9199V25H77.9902V10.7812H83.5273C84.6406 10.7812 85.5944 10.9831 86.3887 11.3867C87.1895 11.7839 87.8014 12.334 88.2246 13.0371C88.6478 13.7402 88.8594 14.5443 88.8594 15.4492C88.8594 16.3672 88.6478 17.1615 88.2246 17.832C87.8014 18.5026 87.1895 19.0202 86.3887 19.3848C85.5944 19.7493 84.6406 19.9316 83.5273 19.9316ZM96.291 22.6172V17.9102C96.291 17.5716 96.2357 17.2819 96.125 17.041C96.0143 16.7936 95.8418 16.6016 95.6074 16.4648C95.3796 16.3281 95.0833 16.2598 94.7188 16.2598C94.4062 16.2598 94.1361 16.3151 93.9082 16.4258C93.6803 16.5299 93.5046 16.6829 93.3809 16.8848C93.2572 17.0801 93.1953 17.3112 93.1953 17.5781H90.3828C90.3828 17.1289 90.487 16.7025 90.6953 16.2988C90.9036 15.8952 91.2064 15.5404 91.6035 15.2344C92.0007 14.9219 92.4727 14.6777 93.0195 14.502C93.5729 14.3262 94.1914 14.2383 94.875 14.2383C95.6953 14.2383 96.4245 14.375 97.0625 14.6484C97.7005 14.9219 98.2018 15.332 98.5664 15.8789C98.9375 16.4258 99.123 17.1094 99.123 17.9297V22.4512C99.123 23.0306 99.1589 23.5059 99.2305 23.877C99.3021 24.2415 99.4062 24.5605 99.543 24.834V25H96.7012C96.5645 24.7135 96.4603 24.3555 96.3887 23.9258C96.3236 23.4896 96.291 23.0534 96.291 22.6172ZM96.6621 18.5645L96.6816 20.1562H95.1094C94.7383 20.1562 94.416 20.1986 94.1426 20.2832C93.8691 20.3678 93.6445 20.4883 93.4688 20.6445C93.293 20.7943 93.1628 20.9701 93.0781 21.1719C93 21.3737 92.9609 21.5951 92.9609 21.8359C92.9609 22.0768 93.0163 22.2949 93.127 22.4902C93.2376 22.679 93.3971 22.8288 93.6055 22.9395C93.8138 23.0436 94.0579 23.0957 94.3379 23.0957C94.7611 23.0957 95.1289 23.0111 95.4414 22.8418C95.7539 22.6725 95.9948 22.4642 96.1641 22.2168C96.3398 21.9694 96.431 21.735 96.4375 21.5137L97.1797 22.7051C97.0755 22.972 96.9323 23.2487 96.75 23.5352C96.5742 23.8216 96.3496 24.0918 96.0762 24.3457C95.8027 24.5931 95.474 24.7982 95.0898 24.9609C94.7057 25.1172 94.25 25.1953 93.7227 25.1953C93.0521 25.1953 92.4434 25.0618 91.8965 24.7949C91.3561 24.5215 90.9264 24.1471 90.6074 23.6719C90.2949 23.1901 90.1387 22.6432 90.1387 22.0312C90.1387 21.4779 90.2428 20.9863 90.4512 20.5566C90.6595 20.127 90.9655 19.7656 91.3691 19.4727C91.7793 19.1732 92.2904 18.9486 92.9023 18.7988C93.5143 18.6426 94.224 18.5645 95.0312 18.5645H96.6621ZM104.104 16.7383V25H101.291V14.4336H103.938L104.104 16.7383ZM107.287 14.3652L107.238 16.9727C107.102 16.9531 106.936 16.9368 106.74 16.9238C106.551 16.9043 106.379 16.8945 106.223 16.8945C105.826 16.8945 105.48 16.9466 105.188 17.0508C104.901 17.1484 104.66 17.2949 104.465 17.4902C104.276 17.6855 104.133 17.9232 104.035 18.2031C103.944 18.4831 103.892 18.8021 103.879 19.1602L103.312 18.9844C103.312 18.3008 103.381 17.6725 103.518 17.0996C103.654 16.5202 103.853 16.0156 104.113 15.5859C104.38 15.1562 104.706 14.8242 105.09 14.5898C105.474 14.3555 105.913 14.2383 106.408 14.2383C106.564 14.2383 106.724 14.2513 106.887 14.2773C107.049 14.2969 107.183 14.3262 107.287 14.3652ZM114.279 14.4336V16.4258H108.127V14.4336H114.279ZM109.65 11.8262H112.463V21.8164C112.463 22.1224 112.502 22.3568 112.58 22.5195C112.665 22.6823 112.788 22.7962 112.951 22.8613C113.114 22.9199 113.319 22.9492 113.566 22.9492C113.742 22.9492 113.898 22.9427 114.035 22.9297C114.178 22.9102 114.299 22.8906 114.396 22.8711L114.406 24.9414C114.165 25.0195 113.905 25.0814 113.625 25.127C113.345 25.1725 113.036 25.1953 112.697 25.1953C112.079 25.1953 111.538 25.0944 111.076 24.8926C110.62 24.6842 110.269 24.3522 110.021 23.8965C109.774 23.4408 109.65 22.8418 109.65 22.0996V11.8262ZM118.635 16.6895V25H115.822V14.4336H118.459L118.635 16.6895ZM118.225 19.3457H117.463C117.463 18.5645 117.564 17.8613 117.766 17.2363C117.967 16.6048 118.251 16.0677 118.615 15.625C118.98 15.1758 119.413 14.834 119.914 14.5996C120.422 14.3587 120.988 14.2383 121.613 14.2383C122.108 14.2383 122.561 14.3099 122.971 14.4531C123.381 14.5964 123.732 14.8242 124.025 15.1367C124.325 15.4492 124.553 15.8626 124.709 16.377C124.872 16.8913 124.953 17.5195 124.953 18.2617V25H122.121V18.252C122.121 17.7832 122.056 17.4186 121.926 17.1582C121.796 16.8978 121.604 16.7155 121.35 16.6113C121.102 16.5007 120.796 16.4453 120.432 16.4453C120.054 16.4453 119.725 16.5202 119.445 16.6699C119.172 16.8197 118.944 17.028 118.762 17.2949C118.586 17.5553 118.452 17.8613 118.361 18.2129C118.27 18.5645 118.225 18.9421 118.225 19.3457ZM131.955 25.1953C131.135 25.1953 130.399 25.0651 129.748 24.8047C129.097 24.5378 128.544 24.1699 128.088 23.7012C127.639 23.2324 127.294 22.6888 127.053 22.0703C126.812 21.4453 126.691 20.7812 126.691 20.0781V19.6875C126.691 18.8867 126.805 18.1543 127.033 17.4902C127.261 16.8262 127.587 16.25 128.01 15.7617C128.439 15.2734 128.96 14.8991 129.572 14.6387C130.184 14.3717 130.874 14.2383 131.643 14.2383C132.391 14.2383 133.055 14.362 133.635 14.6094C134.214 14.8568 134.699 15.2083 135.09 15.6641C135.487 16.1198 135.786 16.6667 135.988 17.3047C136.19 17.9362 136.291 18.6393 136.291 19.4141V20.5859H127.893V18.7109H133.527V18.4961C133.527 18.1055 133.456 17.7572 133.312 17.4512C133.176 17.1387 132.967 16.8913 132.688 16.709C132.408 16.5267 132.049 16.4355 131.613 16.4355C131.242 16.4355 130.923 16.5169 130.656 16.6797C130.389 16.8424 130.171 17.0703 130.002 17.3633C129.839 17.6562 129.715 18.0013 129.631 18.3984C129.553 18.7891 129.514 19.2188 129.514 19.6875V20.0781C129.514 20.5013 129.572 20.8919 129.689 21.25C129.813 21.6081 129.986 21.9173 130.207 22.1777C130.435 22.4382 130.708 22.64 131.027 22.7832C131.353 22.9264 131.721 22.998 132.131 22.998C132.639 22.998 133.111 22.9004 133.547 22.7051C133.99 22.5033 134.37 22.2005 134.689 21.7969L136.057 23.2812C135.835 23.6003 135.533 23.9062 135.148 24.1992C134.771 24.4922 134.315 24.7331 133.781 24.9219C133.247 25.1042 132.639 25.1953 131.955 25.1953ZM140.705 16.7383V25H137.893V14.4336H140.539L140.705 16.7383ZM143.889 14.3652L143.84 16.9727C143.703 16.9531 143.537 16.9368 143.342 16.9238C143.153 16.9043 142.98 16.8945 142.824 16.8945C142.427 16.8945 142.082 16.9466 141.789 17.0508C141.503 17.1484 141.262 17.2949 141.066 17.4902C140.878 17.6855 140.734 17.9232 140.637 18.2031C140.546 18.4831 140.493 18.8021 140.48 19.1602L139.914 18.9844C139.914 18.3008 139.982 17.6725 140.119 17.0996C140.256 16.5202 140.454 16.0156 140.715 15.5859C140.982 15.1562 141.307 14.8242 141.691 14.5898C142.076 14.3555 142.515 14.2383 143.01 14.2383C143.166 14.2383 143.326 14.2513 143.488 14.2773C143.651 14.2969 143.785 14.3262 143.889 14.3652ZM150.93 22.0801C150.93 21.8783 150.871 21.696 150.754 21.5332C150.637 21.3704 150.419 21.2207 150.1 21.084C149.787 20.9408 149.335 20.8105 148.742 20.6934C148.208 20.5762 147.71 20.4297 147.248 20.2539C146.792 20.0716 146.395 19.8535 146.057 19.5996C145.725 19.3457 145.464 19.0462 145.275 18.7012C145.087 18.3496 144.992 17.9492 144.992 17.5C144.992 17.0573 145.087 16.6406 145.275 16.25C145.471 15.8594 145.747 15.5143 146.105 15.2148C146.47 14.9089 146.913 14.6712 147.434 14.502C147.961 14.3262 148.553 14.2383 149.211 14.2383C150.129 14.2383 150.917 14.3848 151.574 14.6777C152.238 14.9707 152.746 15.3743 153.098 15.8887C153.456 16.3965 153.635 16.9759 153.635 17.627H150.822C150.822 17.3535 150.764 17.1094 150.646 16.8945C150.536 16.6732 150.36 16.5007 150.119 16.377C149.885 16.2467 149.579 16.1816 149.201 16.1816C148.889 16.1816 148.618 16.237 148.391 16.3477C148.163 16.4518 147.987 16.5951 147.863 16.7773C147.746 16.9531 147.688 17.1484 147.688 17.3633C147.688 17.526 147.72 17.6725 147.785 17.8027C147.857 17.9264 147.971 18.0404 148.127 18.1445C148.283 18.2487 148.485 18.3464 148.732 18.4375C148.986 18.5221 149.299 18.6003 149.67 18.6719C150.432 18.8281 151.112 19.0332 151.711 19.2871C152.31 19.5345 152.785 19.873 153.137 20.3027C153.488 20.7259 153.664 21.2826 153.664 21.9727C153.664 22.4414 153.56 22.8711 153.352 23.2617C153.143 23.6523 152.844 23.9941 152.453 24.2871C152.062 24.5736 151.594 24.7982 151.047 24.9609C150.507 25.1172 149.898 25.1953 149.221 25.1953C148.238 25.1953 147.404 25.0195 146.721 24.668C146.044 24.3164 145.529 23.8704 145.178 23.3301C144.833 22.7832 144.66 22.2233 144.66 21.6504H147.326C147.339 22.0345 147.437 22.3438 147.619 22.5781C147.808 22.8125 148.046 22.9818 148.332 23.0859C148.625 23.1901 148.941 23.2422 149.279 23.2422C149.644 23.2422 149.947 23.1934 150.188 23.0957C150.428 22.9915 150.611 22.8548 150.734 22.6855C150.865 22.5098 150.93 22.3079 150.93 22.0801Z" fill="url(#paint3_linear_534_1726)"/>
<defs>
<linearGradient id="paint0_linear_534_1726" x1="0.107422" y1="22.5242" x2="15.1074" y2="22.5242" gradientUnits="userSpaceOnUse">
<stop stop-color="#F72F16"/>
<stop offset="1" stop-color="#9022CB"/>
</linearGradient>
<linearGradient id="paint1_linear_534_1726" x1="13.1621" y1="16.8084" x2="31.1621" y2="16.8084" gradientUnits="userSpaceOnUse">
<stop stop-color="#F72F16"/>
<stop offset="1" stop-color="#9022CB"/>
</linearGradient>
<linearGradient id="paint2_linear_534_1726" x1="0" y1="9.47587" x2="21" y2="9.47587" gradientUnits="userSpaceOnUse">
<stop stop-color="#F72F16"/>
<stop offset="1" stop-color="#9022CB"/>
</linearGradient>
<linearGradient id="paint3_linear_534_1726" x1="39.1621" y1="18.0001" x2="155.162" y2="18.0001" gradientUnits="userSpaceOnUse">
<stop stop-color="#F72F16"/>
<stop offset="1" stop-color="#9022CB"/>
</linearGradient>
</defs>
</svg>
