<svg width="18" height="18" viewBox="0 0 18 18" fill="none" xmlns="http://www.w3.org/2000/svg">
<path fill-rule="evenodd" clip-rule="evenodd" d="M2.13413 0.0861288C2.01692 0.141309 1.59212 0.533715 1.00098 1.13278C0.22034 1.92397 0.0498753 2.12064 0.023668 2.2603C-0.0497499 2.65158 -0.159221 2.52749 3.20502 5.86655L6.35355 8.99154L3.20671 12.1488C0.645705 14.7183 0.0546573 15.3344 0.0315911 15.4584C-0.032169 15.802 0.0109161 15.8641 1.02761 16.8923C1.55883 17.4295 2.05044 17.8989 2.12006 17.9354C2.27135 18.0147 2.54608 18.0218 2.68809 17.95C2.7444 17.9216 4.18819 16.5029 5.89644 14.7973L9.00241 11.6964L12.1084 14.7973C13.8167 16.5029 15.2604 17.9216 15.3167 17.95C15.4587 18.0218 15.7335 18.0147 15.8848 17.9354C15.9544 17.8989 16.4465 17.4295 16.9784 16.8923C17.9957 15.8649 18.0485 15.7892 17.9795 15.4584C17.9541 15.3367 17.3159 14.6732 14.8055 12.1585C13.0773 10.4273 11.6712 8.98976 11.6808 8.96402C11.6903 8.93824 13.08 7.55333 14.7689 5.88647C16.4579 4.21961 17.8767 2.7882 17.9218 2.70564C18.0391 2.49087 18.0235 2.29809 17.8693 2.05922C17.7953 1.9446 17.3255 1.44656 16.8254 0.952469C15.8376 -0.0233418 15.7604 -0.0725214 15.4017 0.0458568C15.2722 0.0885667 14.4889 0.837608 12.1363 3.16818C10.434 4.85454 9.02463 6.23429 9.00442 6.23429C8.98417 6.23429 7.58829 4.87184 5.90249 3.20658C4.21665 1.54136 2.79517 0.150498 2.7436 0.115805C2.57506 0.00244345 2.33647 -0.0091832 2.13413 0.0861288Z" fill="black"/>
</svg>
