<svg width="26" height="99" viewBox="0 0 26 99" fill="none" xmlns="http://www.w3.org/2000/svg">
<path d="M24.7602 0L21.8908 66.3968H3.6067L0.737293 0H24.7602ZM0.136719 87.0832C0.136719 83.8801 1.29338 81.2109 3.6067 79.0756C5.92002 76.8957 8.92289 75.8058 12.6153 75.8058C16.3077 75.8058 19.2884 76.8957 21.5572 79.0756C23.8705 81.2109 25.0272 83.8801 25.0272 87.0832C25.0272 90.2863 23.8705 92.9777 21.5572 95.1576C19.2884 97.293 16.3077 98.3607 12.6153 98.3607C8.92289 98.3607 5.92002 97.293 3.6067 95.1576C1.29338 92.9777 0.136719 90.2863 0.136719 87.0832Z" fill="url(#paint0_linear_684_7112)"/>
<defs>
<linearGradient id="paint0_linear_684_7112" x1="0.136719" y1="49.1805" x2="25.0272" y2="49.1805" gradientUnits="userSpaceOnUse">
<stop stop-color="#F72F16"/>
<stop offset="1" stop-color="#9422D1"/>
</linearGradient>
</defs>
</svg>
